<mxfile host="Electron" agent="Mozilla/5.0 (Windows NT 10.0; Win64; x64) AppleWebKit/537.36 (KHTML, like Gecko) draw.io/26.0.4 Chrome/128.0.6613.186 Electron/32.2.5 Safari/537.36" version="26.0.4" pages="2">
  <diagram name="P-box_interface" id="kTOuLG9FY1YaM9BH0i5_">
    <mxGraphModel dx="890" dy="428" grid="1" gridSize="10" guides="1" tooltips="1" connect="1" arrows="1" fold="1" page="1" pageScale="1" pageWidth="1654" pageHeight="1169" math="0" shadow="0">
      <root>
        <mxCell id="0" />
        <mxCell id="1" parent="0" />
        <mxCell id="-jdnPwsLQePdDmlqJ3oF-6" style="edgeStyle=orthogonalEdgeStyle;rounded=0;orthogonalLoop=1;jettySize=auto;html=1;exitX=1;exitY=0.5;exitDx=0;exitDy=0;entryX=0;entryY=0.5;entryDx=0;entryDy=0;" edge="1" parent="1" source="-jdnPwsLQePdDmlqJ3oF-1" target="-jdnPwsLQePdDmlqJ3oF-5">
          <mxGeometry relative="1" as="geometry" />
        </mxCell>
        <mxCell id="-jdnPwsLQePdDmlqJ3oF-1" value="" style="ellipse;whiteSpace=wrap;html=1;aspect=fixed;" vertex="1" parent="1">
          <mxGeometry x="470" y="160" width="90" height="90" as="geometry" />
        </mxCell>
        <mxCell id="-jdnPwsLQePdDmlqJ3oF-2" value="P-box" style="text;html=1;align=center;verticalAlign=middle;whiteSpace=wrap;rounded=0;" vertex="1" parent="1">
          <mxGeometry x="485" y="190" width="60" height="30" as="geometry" />
        </mxCell>
        <mxCell id="-jdnPwsLQePdDmlqJ3oF-4" style="edgeStyle=orthogonalEdgeStyle;rounded=0;orthogonalLoop=1;jettySize=auto;html=1;exitX=1;exitY=0.5;exitDx=0;exitDy=0;entryX=0;entryY=0.5;entryDx=0;entryDy=0;" edge="1" parent="1" source="-jdnPwsLQePdDmlqJ3oF-3" target="-jdnPwsLQePdDmlqJ3oF-1">
          <mxGeometry relative="1" as="geometry" />
        </mxCell>
        <mxCell id="-jdnPwsLQePdDmlqJ3oF-3" value="p_in[31:0]" style="text;html=1;align=center;verticalAlign=middle;whiteSpace=wrap;rounded=0;" vertex="1" parent="1">
          <mxGeometry x="340" y="190" width="60" height="30" as="geometry" />
        </mxCell>
        <mxCell id="-jdnPwsLQePdDmlqJ3oF-5" value="f_value[31:0]" style="text;html=1;align=center;verticalAlign=middle;whiteSpace=wrap;rounded=0;" vertex="1" parent="1">
          <mxGeometry x="620" y="190" width="80" height="30" as="geometry" />
        </mxCell>
      </root>
    </mxGraphModel>
  </diagram>
  <diagram id="r3kzzgt5FYAdAcmQae-p" name="P-box_Circuit">
    <mxGraphModel dx="2906" dy="1715" grid="1" gridSize="10" guides="1" tooltips="1" connect="1" arrows="1" fold="1" page="1" pageScale="1" pageWidth="1654" pageHeight="1169" math="0" shadow="0">
      <root>
        <mxCell id="0" />
        <mxCell id="1" parent="0" />
        <mxCell id="CNiatcifHr_KIV68cKUx-1" style="edgeStyle=orthogonalEdgeStyle;rounded=0;orthogonalLoop=1;jettySize=auto;html=1;exitX=0.5;exitY=1;exitDx=0;exitDy=0;entryX=0;entryY=0.5;entryDx=0;entryDy=0;" edge="1" parent="1" source="CNiatcifHr_KIV68cKUx-2" target="CNiatcifHr_KIV68cKUx-136">
          <mxGeometry relative="1" as="geometry" />
        </mxCell>
        <mxCell id="CNiatcifHr_KIV68cKUx-2" value="p_in [21]" style="text;html=1;align=center;verticalAlign=middle;whiteSpace=wrap;rounded=0;" vertex="1" parent="1">
          <mxGeometry x="10" y="-30" width="60" height="30" as="geometry" />
        </mxCell>
        <mxCell id="CNiatcifHr_KIV68cKUx-3" style="edgeStyle=orthogonalEdgeStyle;rounded=0;orthogonalLoop=1;jettySize=auto;html=1;exitX=0.5;exitY=1;exitDx=0;exitDy=0;entryX=0;entryY=0.5;entryDx=0;entryDy=0;" edge="1" parent="1" source="CNiatcifHr_KIV68cKUx-4" target="CNiatcifHr_KIV68cKUx-134">
          <mxGeometry relative="1" as="geometry" />
        </mxCell>
        <mxCell id="CNiatcifHr_KIV68cKUx-4" value="p_in [20]" style="text;html=1;align=center;verticalAlign=middle;whiteSpace=wrap;rounded=0;" vertex="1" parent="1">
          <mxGeometry x="70" y="-30" width="60" height="30" as="geometry" />
        </mxCell>
        <mxCell id="CNiatcifHr_KIV68cKUx-5" style="edgeStyle=orthogonalEdgeStyle;rounded=0;orthogonalLoop=1;jettySize=auto;html=1;exitX=0.5;exitY=1;exitDx=0;exitDy=0;entryX=0;entryY=0.5;entryDx=0;entryDy=0;" edge="1" parent="1" source="CNiatcifHr_KIV68cKUx-6" target="CNiatcifHr_KIV68cKUx-128">
          <mxGeometry relative="1" as="geometry" />
        </mxCell>
        <mxCell id="CNiatcifHr_KIV68cKUx-6" value="p_in [17]" style="text;html=1;align=center;verticalAlign=middle;whiteSpace=wrap;rounded=0;" vertex="1" parent="1">
          <mxGeometry x="250" y="-30" width="60" height="30" as="geometry" />
        </mxCell>
        <mxCell id="CNiatcifHr_KIV68cKUx-7" style="edgeStyle=orthogonalEdgeStyle;rounded=0;orthogonalLoop=1;jettySize=auto;html=1;exitX=0.5;exitY=1;exitDx=0;exitDy=0;entryX=0;entryY=0.5;entryDx=0;entryDy=0;" edge="1" parent="1" source="CNiatcifHr_KIV68cKUx-8" target="CNiatcifHr_KIV68cKUx-120">
          <mxGeometry relative="1" as="geometry" />
        </mxCell>
        <mxCell id="CNiatcifHr_KIV68cKUx-8" value="p_in [18]" style="text;html=1;align=center;verticalAlign=middle;whiteSpace=wrap;rounded=0;" vertex="1" parent="1">
          <mxGeometry x="190" y="-30" width="60" height="30" as="geometry" />
        </mxCell>
        <mxCell id="CNiatcifHr_KIV68cKUx-9" style="edgeStyle=orthogonalEdgeStyle;rounded=0;orthogonalLoop=1;jettySize=auto;html=1;exitX=0.5;exitY=1;exitDx=0;exitDy=0;entryX=0;entryY=0.5;entryDx=0;entryDy=0;" edge="1" parent="1" source="CNiatcifHr_KIV68cKUx-10" target="CNiatcifHr_KIV68cKUx-131">
          <mxGeometry relative="1" as="geometry" />
        </mxCell>
        <mxCell id="CNiatcifHr_KIV68cKUx-10" value="p_in [19]" style="text;html=1;align=center;verticalAlign=middle;whiteSpace=wrap;rounded=0;" vertex="1" parent="1">
          <mxGeometry x="130" y="-30" width="60" height="30" as="geometry" />
        </mxCell>
        <mxCell id="CNiatcifHr_KIV68cKUx-11" style="edgeStyle=orthogonalEdgeStyle;rounded=0;orthogonalLoop=1;jettySize=auto;html=1;exitX=0.5;exitY=0;exitDx=0;exitDy=0;entryX=0;entryY=0.5;entryDx=0;entryDy=0;" edge="1" parent="1" source="CNiatcifHr_KIV68cKUx-12" target="CNiatcifHr_KIV68cKUx-123">
          <mxGeometry relative="1" as="geometry" />
        </mxCell>
        <mxCell id="CNiatcifHr_KIV68cKUx-12" value="&lt;div&gt;p_in [15]&lt;/div&gt;" style="text;html=1;align=center;verticalAlign=middle;whiteSpace=wrap;rounded=0;direction=east;" vertex="1" parent="1">
          <mxGeometry x="-590" y="470" width="60" height="30" as="geometry" />
        </mxCell>
        <mxCell id="CNiatcifHr_KIV68cKUx-13" style="edgeStyle=orthogonalEdgeStyle;rounded=0;orthogonalLoop=1;jettySize=auto;html=1;exitX=0.5;exitY=1;exitDx=0;exitDy=0;entryX=0;entryY=0.5;entryDx=0;entryDy=0;" edge="1" parent="1" source="CNiatcifHr_KIV68cKUx-14" target="CNiatcifHr_KIV68cKUx-126">
          <mxGeometry relative="1" as="geometry" />
        </mxCell>
        <mxCell id="CNiatcifHr_KIV68cKUx-14" value="&amp;nbsp;p_in&lt;span style=&quot;background-color: transparent; color: light-dark(rgb(0, 0, 0), rgb(255, 255, 255));&quot;&gt;[16]&lt;/span&gt;" style="text;html=1;align=center;verticalAlign=middle;whiteSpace=wrap;rounded=0;" vertex="1" parent="1">
          <mxGeometry x="310" y="-30" width="60" height="30" as="geometry" />
        </mxCell>
        <mxCell id="CNiatcifHr_KIV68cKUx-15" style="edgeStyle=orthogonalEdgeStyle;rounded=0;orthogonalLoop=1;jettySize=auto;html=1;exitX=0.5;exitY=0;exitDx=0;exitDy=0;entryX=0;entryY=0.5;entryDx=0;entryDy=0;" edge="1" parent="1" source="CNiatcifHr_KIV68cKUx-16" target="CNiatcifHr_KIV68cKUx-118">
          <mxGeometry relative="1" as="geometry" />
        </mxCell>
        <mxCell id="CNiatcifHr_KIV68cKUx-16" value="&lt;div&gt;p_in [14]&lt;/div&gt;" style="text;html=1;align=center;verticalAlign=middle;whiteSpace=wrap;rounded=0;" vertex="1" parent="1">
          <mxGeometry x="-530" y="470" width="60" height="30" as="geometry" />
        </mxCell>
        <mxCell id="CNiatcifHr_KIV68cKUx-17" style="edgeStyle=orthogonalEdgeStyle;rounded=0;orthogonalLoop=1;jettySize=auto;html=1;exitX=0.5;exitY=0;exitDx=0;exitDy=0;entryX=0;entryY=0.5;entryDx=0;entryDy=0;" edge="1" parent="1" source="CNiatcifHr_KIV68cKUx-18" target="CNiatcifHr_KIV68cKUx-114">
          <mxGeometry relative="1" as="geometry" />
        </mxCell>
        <mxCell id="CNiatcifHr_KIV68cKUx-18" value="&lt;div&gt;p_in&amp;nbsp;[12]&lt;/div&gt;" style="text;html=1;align=center;verticalAlign=middle;whiteSpace=wrap;rounded=0;" vertex="1" parent="1">
          <mxGeometry x="-410" y="470" width="60" height="30" as="geometry" />
        </mxCell>
        <mxCell id="CNiatcifHr_KIV68cKUx-19" style="edgeStyle=orthogonalEdgeStyle;rounded=0;orthogonalLoop=1;jettySize=auto;html=1;exitX=0.5;exitY=0;exitDx=0;exitDy=0;entryX=0;entryY=0.5;entryDx=0;entryDy=0;" edge="1" parent="1" source="CNiatcifHr_KIV68cKUx-20" target="CNiatcifHr_KIV68cKUx-116">
          <mxGeometry relative="1" as="geometry" />
        </mxCell>
        <mxCell id="CNiatcifHr_KIV68cKUx-20" value="&lt;div&gt;p_in&amp;nbsp;[13]&lt;/div&gt;" style="text;html=1;align=center;verticalAlign=middle;whiteSpace=wrap;rounded=0;" vertex="1" parent="1">
          <mxGeometry x="-470" y="470" width="60" height="30" as="geometry" />
        </mxCell>
        <mxCell id="CNiatcifHr_KIV68cKUx-21" style="edgeStyle=orthogonalEdgeStyle;rounded=0;orthogonalLoop=1;jettySize=auto;html=1;exitX=0.5;exitY=0;exitDx=0;exitDy=0;entryX=0;entryY=0.5;entryDx=0;entryDy=0;" edge="1" parent="1" source="CNiatcifHr_KIV68cKUx-22" target="CNiatcifHr_KIV68cKUx-84">
          <mxGeometry relative="1" as="geometry" />
        </mxCell>
        <mxCell id="CNiatcifHr_KIV68cKUx-22" value="&lt;div&gt;p_in&amp;nbsp;[11]&lt;/div&gt;" style="text;html=1;align=center;verticalAlign=middle;whiteSpace=wrap;rounded=0;" vertex="1" parent="1">
          <mxGeometry x="-350" y="470" width="60" height="30" as="geometry" />
        </mxCell>
        <mxCell id="CNiatcifHr_KIV68cKUx-23" style="edgeStyle=orthogonalEdgeStyle;rounded=0;orthogonalLoop=1;jettySize=auto;html=1;exitX=0.5;exitY=0;exitDx=0;exitDy=0;entryX=0;entryY=0.5;entryDx=0;entryDy=0;" edge="1" parent="1" source="CNiatcifHr_KIV68cKUx-24" target="CNiatcifHr_KIV68cKUx-86">
          <mxGeometry relative="1" as="geometry" />
        </mxCell>
        <mxCell id="CNiatcifHr_KIV68cKUx-24" value="&lt;div&gt;p_in&amp;nbsp;[10]&lt;/div&gt;" style="text;html=1;align=center;verticalAlign=middle;whiteSpace=wrap;rounded=0;" vertex="1" parent="1">
          <mxGeometry x="-290" y="470" width="60" height="30" as="geometry" />
        </mxCell>
        <mxCell id="CNiatcifHr_KIV68cKUx-25" style="edgeStyle=orthogonalEdgeStyle;rounded=0;orthogonalLoop=1;jettySize=auto;html=1;exitX=0.5;exitY=0;exitDx=0;exitDy=0;entryX=0;entryY=0.5;entryDx=0;entryDy=0;" edge="1" parent="1" source="CNiatcifHr_KIV68cKUx-26" target="CNiatcifHr_KIV68cKUx-88">
          <mxGeometry relative="1" as="geometry" />
        </mxCell>
        <mxCell id="CNiatcifHr_KIV68cKUx-26" value="&lt;div&gt;p_in&amp;nbsp;[9]&lt;/div&gt;" style="text;html=1;align=center;verticalAlign=middle;whiteSpace=wrap;rounded=0;" vertex="1" parent="1">
          <mxGeometry x="-230" y="470" width="60" height="30" as="geometry" />
        </mxCell>
        <mxCell id="CNiatcifHr_KIV68cKUx-27" style="edgeStyle=orthogonalEdgeStyle;rounded=0;orthogonalLoop=1;jettySize=auto;html=1;exitX=0.5;exitY=0;exitDx=0;exitDy=0;entryX=0;entryY=0.5;entryDx=0;entryDy=0;" edge="1" parent="1" source="CNiatcifHr_KIV68cKUx-28" target="CNiatcifHr_KIV68cKUx-91">
          <mxGeometry relative="1" as="geometry" />
        </mxCell>
        <mxCell id="CNiatcifHr_KIV68cKUx-28" value="&lt;div&gt;p_in&amp;nbsp;[8]&lt;/div&gt;" style="text;html=1;align=center;verticalAlign=middle;whiteSpace=wrap;rounded=0;" vertex="1" parent="1">
          <mxGeometry x="-170" y="470" width="60" height="30" as="geometry" />
        </mxCell>
        <mxCell id="CNiatcifHr_KIV68cKUx-29" style="edgeStyle=orthogonalEdgeStyle;rounded=0;orthogonalLoop=1;jettySize=auto;html=1;exitX=0.5;exitY=0;exitDx=0;exitDy=0;entryX=0;entryY=0.5;entryDx=0;entryDy=0;" edge="1" parent="1" source="CNiatcifHr_KIV68cKUx-30" target="CNiatcifHr_KIV68cKUx-111">
          <mxGeometry relative="1" as="geometry" />
        </mxCell>
        <mxCell id="CNiatcifHr_KIV68cKUx-30" value="&lt;div&gt;p_in&amp;nbsp;[7]&lt;/div&gt;" style="text;html=1;align=center;verticalAlign=middle;whiteSpace=wrap;rounded=0;" vertex="1" parent="1">
          <mxGeometry x="-110" y="470" width="60" height="30" as="geometry" />
        </mxCell>
        <mxCell id="CNiatcifHr_KIV68cKUx-31" style="edgeStyle=orthogonalEdgeStyle;rounded=0;orthogonalLoop=1;jettySize=auto;html=1;exitX=0.5;exitY=0;exitDx=0;exitDy=0;entryX=0;entryY=0.5;entryDx=0;entryDy=0;" edge="1" parent="1" source="CNiatcifHr_KIV68cKUx-32" target="CNiatcifHr_KIV68cKUx-108">
          <mxGeometry relative="1" as="geometry" />
        </mxCell>
        <mxCell id="CNiatcifHr_KIV68cKUx-32" value="&lt;div&gt;p_in&amp;nbsp;[6]&lt;/div&gt;" style="text;html=1;align=center;verticalAlign=middle;whiteSpace=wrap;rounded=0;" vertex="1" parent="1">
          <mxGeometry x="-50" y="470" width="60" height="30" as="geometry" />
        </mxCell>
        <mxCell id="CNiatcifHr_KIV68cKUx-33" style="edgeStyle=orthogonalEdgeStyle;rounded=0;orthogonalLoop=1;jettySize=auto;html=1;exitX=0.5;exitY=0;exitDx=0;exitDy=0;entryX=0;entryY=0.5;entryDx=0;entryDy=0;" edge="1" parent="1" source="CNiatcifHr_KIV68cKUx-34" target="CNiatcifHr_KIV68cKUx-106">
          <mxGeometry relative="1" as="geometry" />
        </mxCell>
        <mxCell id="CNiatcifHr_KIV68cKUx-34" value="&lt;div&gt;p_in&amp;nbsp;[5]&lt;/div&gt;" style="text;html=1;align=center;verticalAlign=middle;whiteSpace=wrap;rounded=0;" vertex="1" parent="1">
          <mxGeometry x="10" y="470" width="60" height="30" as="geometry" />
        </mxCell>
        <mxCell id="CNiatcifHr_KIV68cKUx-35" style="edgeStyle=orthogonalEdgeStyle;rounded=0;orthogonalLoop=1;jettySize=auto;html=1;exitX=0.5;exitY=1;exitDx=0;exitDy=0;entryX=0;entryY=0.5;entryDx=0;entryDy=0;" edge="1" parent="1" source="CNiatcifHr_KIV68cKUx-36" target="CNiatcifHr_KIV68cKUx-138">
          <mxGeometry relative="1" as="geometry" />
        </mxCell>
        <mxCell id="CNiatcifHr_KIV68cKUx-36" value="p_in [22]" style="text;html=1;align=center;verticalAlign=middle;whiteSpace=wrap;rounded=0;" vertex="1" parent="1">
          <mxGeometry x="-50" y="-30" width="60" height="30" as="geometry" />
        </mxCell>
        <mxCell id="CNiatcifHr_KIV68cKUx-37" style="edgeStyle=orthogonalEdgeStyle;rounded=0;orthogonalLoop=1;jettySize=auto;html=1;exitX=0.5;exitY=1;exitDx=0;exitDy=0;entryX=0;entryY=0.5;entryDx=0;entryDy=0;" edge="1" parent="1" source="CNiatcifHr_KIV68cKUx-38" target="CNiatcifHr_KIV68cKUx-141">
          <mxGeometry relative="1" as="geometry" />
        </mxCell>
        <mxCell id="CNiatcifHr_KIV68cKUx-38" value="&amp;nbsp;p_in [23]" style="text;html=1;align=center;verticalAlign=middle;whiteSpace=wrap;rounded=0;" vertex="1" parent="1">
          <mxGeometry x="-110" y="-30" width="60" height="30" as="geometry" />
        </mxCell>
        <mxCell id="CNiatcifHr_KIV68cKUx-39" style="edgeStyle=orthogonalEdgeStyle;rounded=0;orthogonalLoop=1;jettySize=auto;html=1;exitX=0.5;exitY=1;exitDx=0;exitDy=0;entryX=0;entryY=0.5;entryDx=0;entryDy=0;" edge="1" parent="1" source="CNiatcifHr_KIV68cKUx-40" target="CNiatcifHr_KIV68cKUx-144">
          <mxGeometry relative="1" as="geometry" />
        </mxCell>
        <mxCell id="CNiatcifHr_KIV68cKUx-40" value="p_in [24]" style="text;html=1;align=center;verticalAlign=middle;whiteSpace=wrap;rounded=0;" vertex="1" parent="1">
          <mxGeometry x="-170" y="-30" width="60" height="30" as="geometry" />
        </mxCell>
        <mxCell id="CNiatcifHr_KIV68cKUx-41" style="edgeStyle=orthogonalEdgeStyle;rounded=0;orthogonalLoop=1;jettySize=auto;html=1;exitX=0.5;exitY=1;exitDx=0;exitDy=0;entryX=0;entryY=0.5;entryDx=0;entryDy=0;" edge="1" parent="1" source="CNiatcifHr_KIV68cKUx-42" target="CNiatcifHr_KIV68cKUx-146">
          <mxGeometry relative="1" as="geometry" />
        </mxCell>
        <mxCell id="CNiatcifHr_KIV68cKUx-42" value="p_in [25]" style="text;html=1;align=center;verticalAlign=middle;whiteSpace=wrap;rounded=0;" vertex="1" parent="1">
          <mxGeometry x="-230" y="-30" width="60" height="30" as="geometry" />
        </mxCell>
        <mxCell id="CNiatcifHr_KIV68cKUx-43" style="edgeStyle=orthogonalEdgeStyle;rounded=0;orthogonalLoop=1;jettySize=auto;html=1;exitX=0.5;exitY=1;exitDx=0;exitDy=0;entryX=0;entryY=0.5;entryDx=0;entryDy=0;" edge="1" parent="1" source="CNiatcifHr_KIV68cKUx-44" target="CNiatcifHr_KIV68cKUx-148">
          <mxGeometry relative="1" as="geometry" />
        </mxCell>
        <mxCell id="CNiatcifHr_KIV68cKUx-44" value="p_in [26]" style="text;html=1;align=center;verticalAlign=middle;whiteSpace=wrap;rounded=0;" vertex="1" parent="1">
          <mxGeometry x="-290" y="-30" width="60" height="30" as="geometry" />
        </mxCell>
        <mxCell id="CNiatcifHr_KIV68cKUx-45" style="edgeStyle=orthogonalEdgeStyle;rounded=0;orthogonalLoop=1;jettySize=auto;html=1;exitX=0.5;exitY=0;exitDx=0;exitDy=0;entryX=0;entryY=0.5;entryDx=0;entryDy=0;" edge="1" parent="1" source="CNiatcifHr_KIV68cKUx-46" target="CNiatcifHr_KIV68cKUx-104">
          <mxGeometry relative="1" as="geometry" />
        </mxCell>
        <mxCell id="CNiatcifHr_KIV68cKUx-46" value="&lt;div&gt;p_in [4]&lt;/div&gt;" style="text;html=1;align=center;verticalAlign=middle;whiteSpace=wrap;rounded=0;" vertex="1" parent="1">
          <mxGeometry x="70" y="470" width="60" height="30" as="geometry" />
        </mxCell>
        <mxCell id="CNiatcifHr_KIV68cKUx-47" style="edgeStyle=orthogonalEdgeStyle;rounded=0;orthogonalLoop=1;jettySize=auto;html=1;exitX=0.5;exitY=1;exitDx=0;exitDy=0;entryX=0;entryY=0.5;entryDx=0;entryDy=0;" edge="1" parent="1" source="CNiatcifHr_KIV68cKUx-48" target="CNiatcifHr_KIV68cKUx-154">
          <mxGeometry relative="1" as="geometry" />
        </mxCell>
        <mxCell id="CNiatcifHr_KIV68cKUx-48" value="p_in [28]" style="text;html=1;align=center;verticalAlign=middle;whiteSpace=wrap;rounded=0;" vertex="1" parent="1">
          <mxGeometry x="-410" y="-30" width="60" height="30" as="geometry" />
        </mxCell>
        <mxCell id="CNiatcifHr_KIV68cKUx-49" style="edgeStyle=orthogonalEdgeStyle;rounded=0;orthogonalLoop=1;jettySize=auto;html=1;exitX=0.5;exitY=1;exitDx=0;exitDy=0;entryX=0;entryY=0.5;entryDx=0;entryDy=0;" edge="1" parent="1" source="CNiatcifHr_KIV68cKUx-50" target="CNiatcifHr_KIV68cKUx-156">
          <mxGeometry relative="1" as="geometry" />
        </mxCell>
        <mxCell id="CNiatcifHr_KIV68cKUx-50" value="p_in [29]" style="text;html=1;align=center;verticalAlign=middle;whiteSpace=wrap;rounded=0;" vertex="1" parent="1">
          <mxGeometry x="-470" y="-30" width="60" height="30" as="geometry" />
        </mxCell>
        <mxCell id="CNiatcifHr_KIV68cKUx-51" style="edgeStyle=orthogonalEdgeStyle;rounded=0;orthogonalLoop=1;jettySize=auto;html=1;exitX=0.5;exitY=1;exitDx=0;exitDy=0;entryX=0;entryY=0.5;entryDx=0;entryDy=0;" edge="1" parent="1" source="CNiatcifHr_KIV68cKUx-52" target="CNiatcifHr_KIV68cKUx-151">
          <mxGeometry relative="1" as="geometry" />
        </mxCell>
        <mxCell id="CNiatcifHr_KIV68cKUx-52" value="p_in [27]" style="text;html=1;align=center;verticalAlign=middle;whiteSpace=wrap;rounded=0;" vertex="1" parent="1">
          <mxGeometry x="-350" y="-30" width="60" height="30" as="geometry" />
        </mxCell>
        <mxCell id="CNiatcifHr_KIV68cKUx-53" style="edgeStyle=orthogonalEdgeStyle;rounded=0;orthogonalLoop=1;jettySize=auto;html=1;exitX=0.5;exitY=1;exitDx=0;exitDy=0;entryX=0;entryY=0.5;entryDx=0;entryDy=0;" edge="1" parent="1" source="CNiatcifHr_KIV68cKUx-54" target="CNiatcifHr_KIV68cKUx-79">
          <mxGeometry relative="1" as="geometry" />
        </mxCell>
        <mxCell id="CNiatcifHr_KIV68cKUx-54" value="p_in [31]" style="text;html=1;align=center;verticalAlign=middle;whiteSpace=wrap;rounded=0;" vertex="1" parent="1">
          <mxGeometry x="-590" y="-30" width="60" height="30" as="geometry" />
        </mxCell>
        <mxCell id="CNiatcifHr_KIV68cKUx-55" style="edgeStyle=orthogonalEdgeStyle;rounded=0;orthogonalLoop=1;jettySize=auto;html=1;exitX=0.5;exitY=0;exitDx=0;exitDy=0;entryX=0;entryY=0.5;entryDx=0;entryDy=0;" edge="1" parent="1" source="CNiatcifHr_KIV68cKUx-56" target="CNiatcifHr_KIV68cKUx-101">
          <mxGeometry relative="1" as="geometry" />
        </mxCell>
        <mxCell id="CNiatcifHr_KIV68cKUx-56" value="&lt;div&gt;p_in&amp;nbsp;[3]&lt;/div&gt;" style="text;html=1;align=center;verticalAlign=middle;whiteSpace=wrap;rounded=0;" vertex="1" parent="1">
          <mxGeometry x="130" y="470" width="60" height="30" as="geometry" />
        </mxCell>
        <mxCell id="CNiatcifHr_KIV68cKUx-57" style="edgeStyle=orthogonalEdgeStyle;rounded=0;orthogonalLoop=1;jettySize=auto;html=1;exitX=0.5;exitY=1;exitDx=0;exitDy=0;entryX=0;entryY=0.5;entryDx=0;entryDy=0;" edge="1" parent="1" source="CNiatcifHr_KIV68cKUx-58" target="CNiatcifHr_KIV68cKUx-81">
          <mxGeometry relative="1" as="geometry" />
        </mxCell>
        <mxCell id="CNiatcifHr_KIV68cKUx-58" value="p_in [30]" style="text;html=1;align=center;verticalAlign=middle;whiteSpace=wrap;rounded=0;" vertex="1" parent="1">
          <mxGeometry x="-530" y="-30" width="60" height="30" as="geometry" />
        </mxCell>
        <mxCell id="CNiatcifHr_KIV68cKUx-59" style="edgeStyle=orthogonalEdgeStyle;rounded=0;orthogonalLoop=1;jettySize=auto;html=1;exitX=0.5;exitY=0;exitDx=0;exitDy=0;entryX=0;entryY=0.5;entryDx=0;entryDy=0;" edge="1" parent="1" source="CNiatcifHr_KIV68cKUx-60" target="CNiatcifHr_KIV68cKUx-96">
          <mxGeometry relative="1" as="geometry" />
        </mxCell>
        <mxCell id="CNiatcifHr_KIV68cKUx-60" value="&lt;div&gt;p_in&amp;nbsp;[1]&lt;/div&gt;" style="text;html=1;align=center;verticalAlign=middle;whiteSpace=wrap;rounded=0;" vertex="1" parent="1">
          <mxGeometry x="250" y="470" width="60" height="30" as="geometry" />
        </mxCell>
        <mxCell id="CNiatcifHr_KIV68cKUx-61" style="edgeStyle=orthogonalEdgeStyle;rounded=0;orthogonalLoop=1;jettySize=auto;html=1;exitX=0.5;exitY=0;exitDx=0;exitDy=0;entryX=0;entryY=0.5;entryDx=0;entryDy=0;" edge="1" parent="1" source="CNiatcifHr_KIV68cKUx-62" target="CNiatcifHr_KIV68cKUx-98">
          <mxGeometry relative="1" as="geometry" />
        </mxCell>
        <mxCell id="CNiatcifHr_KIV68cKUx-62" value="&lt;div&gt;p_in&amp;nbsp;[2]&lt;/div&gt;" style="text;html=1;align=center;verticalAlign=middle;whiteSpace=wrap;rounded=0;" vertex="1" parent="1">
          <mxGeometry x="190" y="470" width="60" height="30" as="geometry" />
        </mxCell>
        <mxCell id="CNiatcifHr_KIV68cKUx-63" style="edgeStyle=orthogonalEdgeStyle;rounded=0;orthogonalLoop=1;jettySize=auto;html=1;exitX=0.5;exitY=0;exitDx=0;exitDy=0;entryX=0;entryY=0.5;entryDx=0;entryDy=0;" edge="1" parent="1" source="CNiatcifHr_KIV68cKUx-64" target="CNiatcifHr_KIV68cKUx-94">
          <mxGeometry relative="1" as="geometry" />
        </mxCell>
        <mxCell id="CNiatcifHr_KIV68cKUx-64" value="&lt;div&gt;p_in [0]&lt;/div&gt;" style="text;html=1;align=center;verticalAlign=middle;whiteSpace=wrap;rounded=0;" vertex="1" parent="1">
          <mxGeometry x="310" y="470" width="60" height="30" as="geometry" />
        </mxCell>
        <mxCell id="CNiatcifHr_KIV68cKUx-220" style="edgeStyle=orthogonalEdgeStyle;rounded=0;orthogonalLoop=1;jettySize=auto;html=1;exitX=1;exitY=0.5;exitDx=0;exitDy=0;entryX=1;entryY=0.5;entryDx=0;entryDy=0;" edge="1" parent="1" source="CNiatcifHr_KIV68cKUx-79" target="CNiatcifHr_KIV68cKUx-180">
          <mxGeometry relative="1" as="geometry">
            <Array as="points">
              <mxPoint x="-560" y="50" />
              <mxPoint x="-570" y="50" />
              <mxPoint x="-570" y="250" />
            </Array>
          </mxGeometry>
        </mxCell>
        <mxCell id="CNiatcifHr_KIV68cKUx-79" value="" style="triangle;whiteSpace=wrap;html=1;rotation=90;" vertex="1" parent="1">
          <mxGeometry x="-570" y="10" width="20" height="30" as="geometry" />
        </mxCell>
        <mxCell id="CNiatcifHr_KIV68cKUx-229" style="edgeStyle=orthogonalEdgeStyle;rounded=0;orthogonalLoop=1;jettySize=auto;html=1;exitX=1;exitY=0.5;exitDx=0;exitDy=0;entryX=0;entryY=0.5;entryDx=0;entryDy=0;" edge="1" parent="1" source="CNiatcifHr_KIV68cKUx-81" target="CNiatcifHr_KIV68cKUx-171">
          <mxGeometry relative="1" as="geometry">
            <Array as="points">
              <mxPoint x="-500" y="100" />
              <mxPoint x="390" y="100" />
              <mxPoint x="390" y="90" />
            </Array>
          </mxGeometry>
        </mxCell>
        <mxCell id="CNiatcifHr_KIV68cKUx-81" value="" style="triangle;whiteSpace=wrap;html=1;rotation=90;" vertex="1" parent="1">
          <mxGeometry x="-510" y="10" width="20" height="30" as="geometry" />
        </mxCell>
        <mxCell id="CNiatcifHr_KIV68cKUx-215" style="edgeStyle=orthogonalEdgeStyle;rounded=0;orthogonalLoop=1;jettySize=auto;html=1;exitX=1;exitY=0.5;exitDx=0;exitDy=0;entryX=1;entryY=0.5;entryDx=0;entryDy=0;" edge="1" parent="1" source="CNiatcifHr_KIV68cKUx-84" target="CNiatcifHr_KIV68cKUx-165">
          <mxGeometry relative="1" as="geometry" />
        </mxCell>
        <mxCell id="CNiatcifHr_KIV68cKUx-84" value="" style="triangle;whiteSpace=wrap;html=1;rotation=90;direction=west;" vertex="1" parent="1">
          <mxGeometry x="-330" y="430" width="20" height="30" as="geometry" />
        </mxCell>
        <mxCell id="CNiatcifHr_KIV68cKUx-241" style="edgeStyle=orthogonalEdgeStyle;rounded=0;orthogonalLoop=1;jettySize=auto;html=1;exitX=1;exitY=0.5;exitDx=0;exitDy=0;entryX=0;entryY=0.5;entryDx=0;entryDy=0;" edge="1" parent="1" source="CNiatcifHr_KIV68cKUx-86" target="CNiatcifHr_KIV68cKUx-190">
          <mxGeometry relative="1" as="geometry">
            <Array as="points">
              <mxPoint x="-260" y="340" />
              <mxPoint x="390" y="340" />
              <mxPoint x="390" y="330" />
            </Array>
          </mxGeometry>
        </mxCell>
        <mxCell id="CNiatcifHr_KIV68cKUx-86" value="" style="triangle;whiteSpace=wrap;html=1;rotation=90;direction=west;" vertex="1" parent="1">
          <mxGeometry x="-270" y="430" width="20" height="30" as="geometry" />
        </mxCell>
        <mxCell id="CNiatcifHr_KIV68cKUx-222" style="edgeStyle=orthogonalEdgeStyle;rounded=0;orthogonalLoop=1;jettySize=auto;html=1;exitX=1;exitY=0.5;exitDx=0;exitDy=0;entryX=1;entryY=0.5;entryDx=0;entryDy=0;" edge="1" parent="1" source="CNiatcifHr_KIV68cKUx-88" target="CNiatcifHr_KIV68cKUx-178">
          <mxGeometry relative="1" as="geometry" />
        </mxCell>
        <mxCell id="CNiatcifHr_KIV68cKUx-88" value="" style="triangle;whiteSpace=wrap;html=1;rotation=90;direction=west;" vertex="1" parent="1">
          <mxGeometry x="-210" y="430" width="20" height="30" as="geometry" />
        </mxCell>
        <mxCell id="CNiatcifHr_KIV68cKUx-231" style="edgeStyle=orthogonalEdgeStyle;rounded=0;orthogonalLoop=1;jettySize=auto;html=1;exitX=1;exitY=0.5;exitDx=0;exitDy=0;entryX=0;entryY=0.5;entryDx=0;entryDy=0;" edge="1" parent="1" source="CNiatcifHr_KIV68cKUx-91" target="CNiatcifHr_KIV68cKUx-172">
          <mxGeometry relative="1" as="geometry">
            <Array as="points">
              <mxPoint x="-140" y="140" />
              <mxPoint x="390" y="140" />
              <mxPoint x="390" y="130" />
            </Array>
          </mxGeometry>
        </mxCell>
        <mxCell id="CNiatcifHr_KIV68cKUx-91" value="" style="triangle;whiteSpace=wrap;html=1;rotation=90;direction=west;" vertex="1" parent="1">
          <mxGeometry x="-150" y="430" width="20" height="30" as="geometry" />
        </mxCell>
        <mxCell id="CNiatcifHr_KIV68cKUx-233" style="edgeStyle=orthogonalEdgeStyle;rounded=0;orthogonalLoop=1;jettySize=auto;html=1;exitX=1;exitY=0.5;exitDx=0;exitDy=0;entryX=0;entryY=0.5;entryDx=0;entryDy=0;" edge="1" parent="1" source="CNiatcifHr_KIV68cKUx-94" target="CNiatcifHr_KIV68cKUx-184">
          <mxGeometry relative="1" as="geometry">
            <Array as="points">
              <mxPoint x="340" y="180" />
              <mxPoint x="390" y="180" />
              <mxPoint x="390" y="170" />
            </Array>
          </mxGeometry>
        </mxCell>
        <mxCell id="CNiatcifHr_KIV68cKUx-94" value="" style="triangle;whiteSpace=wrap;html=1;rotation=90;direction=west;" vertex="1" parent="1">
          <mxGeometry x="330" y="430" width="20" height="30" as="geometry" />
        </mxCell>
        <mxCell id="CNiatcifHr_KIV68cKUx-227" style="edgeStyle=orthogonalEdgeStyle;rounded=0;orthogonalLoop=1;jettySize=auto;html=1;exitX=1;exitY=0.5;exitDx=0;exitDy=0;entryX=1;entryY=0.5;entryDx=0;entryDy=0;" edge="1" parent="1" source="CNiatcifHr_KIV68cKUx-96" target="CNiatcifHr_KIV68cKUx-174">
          <mxGeometry relative="1" as="geometry" />
        </mxCell>
        <mxCell id="CNiatcifHr_KIV68cKUx-96" value="" style="triangle;whiteSpace=wrap;html=1;rotation=90;direction=west;" vertex="1" parent="1">
          <mxGeometry x="270" y="430" width="20" height="30" as="geometry" />
        </mxCell>
        <mxCell id="CNiatcifHr_KIV68cKUx-239" style="edgeStyle=orthogonalEdgeStyle;rounded=0;orthogonalLoop=1;jettySize=auto;html=1;exitX=1;exitY=0.5;exitDx=0;exitDy=0;entryX=0;entryY=0.5;entryDx=0;entryDy=0;" edge="1" parent="1" source="CNiatcifHr_KIV68cKUx-98" target="CNiatcifHr_KIV68cKUx-191">
          <mxGeometry relative="1" as="geometry">
            <Array as="points">
              <mxPoint x="220" y="300" />
              <mxPoint x="390" y="300" />
              <mxPoint x="390" y="290" />
            </Array>
          </mxGeometry>
        </mxCell>
        <mxCell id="CNiatcifHr_KIV68cKUx-98" value="" style="triangle;whiteSpace=wrap;html=1;rotation=90;direction=west;" vertex="1" parent="1">
          <mxGeometry x="210" y="430" width="20" height="30" as="geometry" />
        </mxCell>
        <mxCell id="CNiatcifHr_KIV68cKUx-216" style="edgeStyle=orthogonalEdgeStyle;rounded=0;orthogonalLoop=1;jettySize=auto;html=1;exitX=1;exitY=0.5;exitDx=0;exitDy=0;entryX=1;entryY=0.5;entryDx=0;entryDy=0;" edge="1" parent="1" source="CNiatcifHr_KIV68cKUx-101" target="CNiatcifHr_KIV68cKUx-166">
          <mxGeometry relative="1" as="geometry" />
        </mxCell>
        <mxCell id="CNiatcifHr_KIV68cKUx-101" value="" style="triangle;whiteSpace=wrap;html=1;rotation=90;direction=west;" vertex="1" parent="1">
          <mxGeometry x="150" y="430" width="20" height="30" as="geometry" />
        </mxCell>
        <mxCell id="CNiatcifHr_KIV68cKUx-218" style="edgeStyle=orthogonalEdgeStyle;rounded=0;orthogonalLoop=1;jettySize=auto;html=1;exitX=1;exitY=0.5;exitDx=0;exitDy=0;entryX=1;entryY=0.5;entryDx=0;entryDy=0;" edge="1" parent="1" source="CNiatcifHr_KIV68cKUx-104" target="CNiatcifHr_KIV68cKUx-163">
          <mxGeometry relative="1" as="geometry" />
        </mxCell>
        <mxCell id="CNiatcifHr_KIV68cKUx-104" value="" style="triangle;whiteSpace=wrap;html=1;rotation=90;direction=west;" vertex="1" parent="1">
          <mxGeometry x="90" y="430" width="20" height="30" as="geometry" />
        </mxCell>
        <mxCell id="CNiatcifHr_KIV68cKUx-234" style="edgeStyle=orthogonalEdgeStyle;rounded=0;orthogonalLoop=1;jettySize=auto;html=1;exitX=1;exitY=0.5;exitDx=0;exitDy=0;entryX=0;entryY=0.5;entryDx=0;entryDy=0;" edge="1" parent="1" source="CNiatcifHr_KIV68cKUx-106" target="CNiatcifHr_KIV68cKUx-183">
          <mxGeometry relative="1" as="geometry">
            <Array as="points">
              <mxPoint x="40" y="200" />
              <mxPoint x="390" y="200" />
              <mxPoint x="390" y="190" />
            </Array>
          </mxGeometry>
        </mxCell>
        <mxCell id="CNiatcifHr_KIV68cKUx-106" value="" style="triangle;whiteSpace=wrap;html=1;rotation=90;direction=west;" vertex="1" parent="1">
          <mxGeometry x="30" y="430" width="20" height="30" as="geometry" />
        </mxCell>
        <mxCell id="CNiatcifHr_KIV68cKUx-223" style="edgeStyle=orthogonalEdgeStyle;rounded=0;orthogonalLoop=1;jettySize=auto;html=1;exitX=1;exitY=0.5;exitDx=0;exitDy=0;entryX=1;entryY=0.5;entryDx=0;entryDy=0;" edge="1" parent="1" source="CNiatcifHr_KIV68cKUx-108" target="CNiatcifHr_KIV68cKUx-177">
          <mxGeometry relative="1" as="geometry" />
        </mxCell>
        <mxCell id="CNiatcifHr_KIV68cKUx-108" value="" style="triangle;whiteSpace=wrap;html=1;rotation=90;direction=west;" vertex="1" parent="1">
          <mxGeometry x="-30" y="430" width="20" height="30" as="geometry" />
        </mxCell>
        <mxCell id="CNiatcifHr_KIV68cKUx-245" style="edgeStyle=orthogonalEdgeStyle;rounded=0;orthogonalLoop=1;jettySize=auto;html=1;exitX=1;exitY=0.5;exitDx=0;exitDy=0;entryX=0;entryY=0.5;entryDx=0;entryDy=0;" edge="1" parent="1" source="CNiatcifHr_KIV68cKUx-111" target="CNiatcifHr_KIV68cKUx-186">
          <mxGeometry relative="1" as="geometry">
            <Array as="points">
              <mxPoint x="-80" y="400" />
              <mxPoint x="390" y="400" />
              <mxPoint x="390" y="390" />
            </Array>
          </mxGeometry>
        </mxCell>
        <mxCell id="CNiatcifHr_KIV68cKUx-111" value="" style="triangle;whiteSpace=wrap;html=1;rotation=90;direction=west;" vertex="1" parent="1">
          <mxGeometry x="-90" y="430" width="20" height="30" as="geometry" />
        </mxCell>
        <mxCell id="CNiatcifHr_KIV68cKUx-214" style="edgeStyle=orthogonalEdgeStyle;rounded=0;orthogonalLoop=1;jettySize=auto;html=1;exitX=1;exitY=0.5;exitDx=0;exitDy=0;entryX=1;entryY=0.5;entryDx=0;entryDy=0;" edge="1" parent="1" source="CNiatcifHr_KIV68cKUx-114" target="CNiatcifHr_KIV68cKUx-167">
          <mxGeometry relative="1" as="geometry" />
        </mxCell>
        <mxCell id="CNiatcifHr_KIV68cKUx-114" value="" style="triangle;whiteSpace=wrap;html=1;rotation=90;direction=west;" vertex="1" parent="1">
          <mxGeometry x="-390" y="430" width="20" height="30" as="geometry" />
        </mxCell>
        <mxCell id="CNiatcifHr_KIV68cKUx-237" style="edgeStyle=orthogonalEdgeStyle;rounded=0;orthogonalLoop=1;jettySize=auto;html=1;exitX=1;exitY=0.5;exitDx=0;exitDy=0;entryX=0;entryY=0.5;entryDx=0;entryDy=0;" edge="1" parent="1" source="CNiatcifHr_KIV68cKUx-116" target="CNiatcifHr_KIV68cKUx-185">
          <mxGeometry relative="1" as="geometry">
            <Array as="points">
              <mxPoint x="-440" y="260" />
              <mxPoint x="390" y="260" />
              <mxPoint x="390" y="250" />
            </Array>
          </mxGeometry>
        </mxCell>
        <mxCell id="CNiatcifHr_KIV68cKUx-116" value="" style="triangle;whiteSpace=wrap;html=1;rotation=90;direction=west;" vertex="1" parent="1">
          <mxGeometry x="-450" y="430" width="20" height="30" as="geometry" />
        </mxCell>
        <mxCell id="CNiatcifHr_KIV68cKUx-226" style="edgeStyle=orthogonalEdgeStyle;rounded=0;orthogonalLoop=1;jettySize=auto;html=1;exitX=1;exitY=0.5;exitDx=0;exitDy=0;entryX=1;entryY=0.5;entryDx=0;entryDy=0;" edge="1" parent="1" source="CNiatcifHr_KIV68cKUx-118" target="CNiatcifHr_KIV68cKUx-175">
          <mxGeometry relative="1" as="geometry" />
        </mxCell>
        <mxCell id="CNiatcifHr_KIV68cKUx-118" value="" style="triangle;whiteSpace=wrap;html=1;rotation=90;direction=west;" vertex="1" parent="1">
          <mxGeometry x="-510" y="430" width="20" height="30" as="geometry" />
        </mxCell>
        <mxCell id="CNiatcifHr_KIV68cKUx-232" style="edgeStyle=orthogonalEdgeStyle;rounded=0;orthogonalLoop=1;jettySize=auto;html=1;exitX=1;exitY=0.5;exitDx=0;exitDy=0;entryX=0;entryY=0.5;entryDx=0;entryDy=0;" edge="1" parent="1" source="CNiatcifHr_KIV68cKUx-120" target="CNiatcifHr_KIV68cKUx-170">
          <mxGeometry relative="1" as="geometry">
            <Array as="points">
              <mxPoint x="220" y="160" />
              <mxPoint x="390" y="160" />
              <mxPoint x="390" y="150" />
            </Array>
          </mxGeometry>
        </mxCell>
        <mxCell id="CNiatcifHr_KIV68cKUx-120" value="" style="triangle;whiteSpace=wrap;html=1;rotation=90;" vertex="1" parent="1">
          <mxGeometry x="210" y="10" width="20" height="30" as="geometry" />
        </mxCell>
        <mxCell id="CNiatcifHr_KIV68cKUx-219" style="edgeStyle=orthogonalEdgeStyle;rounded=0;orthogonalLoop=1;jettySize=auto;html=1;exitX=1;exitY=0.5;exitDx=0;exitDy=0;entryX=1;entryY=0.5;entryDx=0;entryDy=0;" edge="1" parent="1" source="CNiatcifHr_KIV68cKUx-123" target="CNiatcifHr_KIV68cKUx-162">
          <mxGeometry relative="1" as="geometry" />
        </mxCell>
        <mxCell id="CNiatcifHr_KIV68cKUx-123" value="" style="triangle;whiteSpace=wrap;html=1;rotation=90;direction=west;" vertex="1" parent="1">
          <mxGeometry x="-570" y="430" width="20" height="30" as="geometry" />
        </mxCell>
        <mxCell id="CNiatcifHr_KIV68cKUx-212" style="edgeStyle=orthogonalEdgeStyle;rounded=0;orthogonalLoop=1;jettySize=auto;html=1;exitX=1;exitY=0.5;exitDx=0;exitDy=0;entryX=1;entryY=0.5;entryDx=0;entryDy=0;" edge="1" parent="1" source="CNiatcifHr_KIV68cKUx-126" target="CNiatcifHr_KIV68cKUx-161">
          <mxGeometry relative="1" as="geometry" />
        </mxCell>
        <mxCell id="CNiatcifHr_KIV68cKUx-126" value="" style="triangle;whiteSpace=wrap;html=1;rotation=90;" vertex="1" parent="1">
          <mxGeometry x="330" y="10" width="20" height="30" as="geometry" />
        </mxCell>
        <mxCell id="CNiatcifHr_KIV68cKUx-221" style="edgeStyle=orthogonalEdgeStyle;rounded=0;orthogonalLoop=1;jettySize=auto;html=1;exitX=1;exitY=0.5;exitDx=0;exitDy=0;entryX=1;entryY=0.5;entryDx=0;entryDy=0;" edge="1" parent="1" source="CNiatcifHr_KIV68cKUx-128" target="CNiatcifHr_KIV68cKUx-179">
          <mxGeometry relative="1" as="geometry" />
        </mxCell>
        <mxCell id="CNiatcifHr_KIV68cKUx-128" value="" style="triangle;whiteSpace=wrap;html=1;rotation=90;" vertex="1" parent="1">
          <mxGeometry x="270" y="10" width="20" height="30" as="geometry" />
        </mxCell>
        <mxCell id="CNiatcifHr_KIV68cKUx-238" style="edgeStyle=orthogonalEdgeStyle;rounded=0;orthogonalLoop=1;jettySize=auto;html=1;exitX=1;exitY=0.5;exitDx=0;exitDy=0;entryX=0;entryY=0.5;entryDx=0;entryDy=0;" edge="1" parent="1" source="CNiatcifHr_KIV68cKUx-131" target="CNiatcifHr_KIV68cKUx-192">
          <mxGeometry relative="1" as="geometry">
            <Array as="points">
              <mxPoint x="160" y="50" />
              <mxPoint x="150" y="50" />
              <mxPoint x="150" y="280" />
              <mxPoint x="390" y="280" />
              <mxPoint x="390" y="270" />
            </Array>
          </mxGeometry>
        </mxCell>
        <mxCell id="CNiatcifHr_KIV68cKUx-131" value="" style="triangle;whiteSpace=wrap;html=1;rotation=90;" vertex="1" parent="1">
          <mxGeometry x="150" y="10" width="20" height="30" as="geometry" />
        </mxCell>
        <mxCell id="CNiatcifHr_KIV68cKUx-217" style="edgeStyle=orthogonalEdgeStyle;rounded=0;orthogonalLoop=1;jettySize=auto;html=1;exitX=1;exitY=0.5;exitDx=0;exitDy=0;entryX=1;entryY=0.5;entryDx=0;entryDy=0;" edge="1" parent="1" source="CNiatcifHr_KIV68cKUx-134" target="CNiatcifHr_KIV68cKUx-164">
          <mxGeometry relative="1" as="geometry" />
        </mxCell>
        <mxCell id="CNiatcifHr_KIV68cKUx-134" value="" style="triangle;whiteSpace=wrap;html=1;rotation=90;" vertex="1" parent="1">
          <mxGeometry x="90" y="10" width="20" height="30" as="geometry" />
        </mxCell>
        <mxCell id="CNiatcifHr_KIV68cKUx-242" style="edgeStyle=orthogonalEdgeStyle;rounded=0;orthogonalLoop=1;jettySize=auto;html=1;exitX=1;exitY=0.5;exitDx=0;exitDy=0;entryX=0;entryY=0.5;entryDx=0;entryDy=0;" edge="1" parent="1" source="CNiatcifHr_KIV68cKUx-136" target="CNiatcifHr_KIV68cKUx-188">
          <mxGeometry relative="1" as="geometry">
            <Array as="points">
              <mxPoint x="40" y="50" />
              <mxPoint x="30" y="50" />
              <mxPoint x="30" y="360" />
              <mxPoint x="390" y="360" />
              <mxPoint x="390" y="350" />
            </Array>
          </mxGeometry>
        </mxCell>
        <mxCell id="CNiatcifHr_KIV68cKUx-136" value="" style="triangle;whiteSpace=wrap;html=1;rotation=90;" vertex="1" parent="1">
          <mxGeometry x="30" y="10" width="20" height="30" as="geometry" />
        </mxCell>
        <mxCell id="CNiatcifHr_KIV68cKUx-228" style="edgeStyle=orthogonalEdgeStyle;rounded=0;orthogonalLoop=1;jettySize=auto;html=1;exitX=1;exitY=0.5;exitDx=0;exitDy=0;entryX=1;entryY=0.5;entryDx=0;entryDy=0;" edge="1" parent="1" source="CNiatcifHr_KIV68cKUx-138" target="CNiatcifHr_KIV68cKUx-173">
          <mxGeometry relative="1" as="geometry">
            <Array as="points">
              <mxPoint x="-20" y="50" />
              <mxPoint x="-30" y="50" />
              <mxPoint x="-30" y="390" />
            </Array>
          </mxGeometry>
        </mxCell>
        <mxCell id="CNiatcifHr_KIV68cKUx-138" value="" style="triangle;whiteSpace=wrap;html=1;rotation=90;" vertex="1" parent="1">
          <mxGeometry x="-30" y="10" width="20" height="30" as="geometry" />
        </mxCell>
        <mxCell id="CNiatcifHr_KIV68cKUx-236" style="edgeStyle=orthogonalEdgeStyle;rounded=0;orthogonalLoop=1;jettySize=auto;html=1;exitX=1;exitY=0.5;exitDx=0;exitDy=0;entryX=0;entryY=0.5;entryDx=0;entryDy=0;" edge="1" parent="1" source="CNiatcifHr_KIV68cKUx-141" target="CNiatcifHr_KIV68cKUx-181">
          <mxGeometry relative="1" as="geometry">
            <Array as="points">
              <mxPoint x="-80" y="240" />
              <mxPoint x="390" y="240" />
              <mxPoint x="390" y="230" />
            </Array>
          </mxGeometry>
        </mxCell>
        <mxCell id="CNiatcifHr_KIV68cKUx-141" value="" style="triangle;whiteSpace=wrap;html=1;rotation=90;" vertex="1" parent="1">
          <mxGeometry x="-90" y="10" width="20" height="30" as="geometry" />
        </mxCell>
        <mxCell id="CNiatcifHr_KIV68cKUx-230" style="edgeStyle=orthogonalEdgeStyle;rounded=0;orthogonalLoop=1;jettySize=auto;html=1;exitX=1;exitY=0.5;exitDx=0;exitDy=0;entryX=0;entryY=0.5;entryDx=0;entryDy=0;" edge="1" parent="1" source="CNiatcifHr_KIV68cKUx-144" target="CNiatcifHr_KIV68cKUx-169">
          <mxGeometry relative="1" as="geometry">
            <Array as="points">
              <mxPoint x="-140" y="120" />
              <mxPoint x="390" y="120" />
              <mxPoint x="390" y="110" />
            </Array>
          </mxGeometry>
        </mxCell>
        <mxCell id="CNiatcifHr_KIV68cKUx-144" value="" style="triangle;whiteSpace=wrap;html=1;rotation=90;" vertex="1" parent="1">
          <mxGeometry x="-150" y="10" width="20" height="30" as="geometry" />
        </mxCell>
        <mxCell id="CNiatcifHr_KIV68cKUx-213" style="edgeStyle=orthogonalEdgeStyle;rounded=0;orthogonalLoop=1;jettySize=auto;html=1;exitX=1;exitY=0.5;exitDx=0;exitDy=0;entryX=1;entryY=0.5;entryDx=0;entryDy=0;" edge="1" parent="1" source="CNiatcifHr_KIV68cKUx-146" target="CNiatcifHr_KIV68cKUx-168">
          <mxGeometry relative="1" as="geometry" />
        </mxCell>
        <mxCell id="CNiatcifHr_KIV68cKUx-146" value="" style="triangle;whiteSpace=wrap;html=1;rotation=90;" vertex="1" parent="1">
          <mxGeometry x="-210" y="10" width="20" height="30" as="geometry" />
        </mxCell>
        <mxCell id="CNiatcifHr_KIV68cKUx-240" style="edgeStyle=orthogonalEdgeStyle;rounded=0;orthogonalLoop=1;jettySize=auto;html=1;exitX=1;exitY=0.5;exitDx=0;exitDy=0;entryX=0;entryY=0.5;entryDx=0;entryDy=0;" edge="1" parent="1" source="CNiatcifHr_KIV68cKUx-148" target="CNiatcifHr_KIV68cKUx-189">
          <mxGeometry relative="1" as="geometry">
            <Array as="points">
              <mxPoint x="-260" y="320" />
              <mxPoint x="390" y="320" />
              <mxPoint x="390" y="310" />
            </Array>
          </mxGeometry>
        </mxCell>
        <mxCell id="CNiatcifHr_KIV68cKUx-148" value="" style="triangle;whiteSpace=wrap;html=1;rotation=90;" vertex="1" parent="1">
          <mxGeometry x="-270" y="10" width="20" height="30" as="geometry" />
        </mxCell>
        <mxCell id="CNiatcifHr_KIV68cKUx-224" style="edgeStyle=orthogonalEdgeStyle;rounded=0;orthogonalLoop=1;jettySize=auto;html=1;exitX=1;exitY=0.5;exitDx=0;exitDy=0;entryX=1;entryY=0.5;entryDx=0;entryDy=0;" edge="1" parent="1" source="CNiatcifHr_KIV68cKUx-151" target="CNiatcifHr_KIV68cKUx-176">
          <mxGeometry relative="1" as="geometry">
            <Array as="points">
              <mxPoint x="-320" y="50" />
              <mxPoint x="-330" y="50" />
              <mxPoint x="-330" y="330" />
            </Array>
          </mxGeometry>
        </mxCell>
        <mxCell id="CNiatcifHr_KIV68cKUx-151" value="" style="triangle;whiteSpace=wrap;html=1;rotation=90;" vertex="1" parent="1">
          <mxGeometry x="-330" y="10" width="20" height="30" as="geometry" />
        </mxCell>
        <mxCell id="CNiatcifHr_KIV68cKUx-244" style="edgeStyle=orthogonalEdgeStyle;rounded=0;orthogonalLoop=1;jettySize=auto;html=1;exitX=1;exitY=0.5;exitDx=0;exitDy=0;entryX=0;entryY=0.5;entryDx=0;entryDy=0;" edge="1" parent="1" source="CNiatcifHr_KIV68cKUx-154" target="CNiatcifHr_KIV68cKUx-187">
          <mxGeometry relative="1" as="geometry">
            <Array as="points">
              <mxPoint x="-380" y="50" />
              <mxPoint x="-390" y="50" />
              <mxPoint x="-390" y="380" />
              <mxPoint x="390" y="380" />
              <mxPoint x="390" y="370" />
            </Array>
          </mxGeometry>
        </mxCell>
        <mxCell id="CNiatcifHr_KIV68cKUx-154" value="" style="triangle;whiteSpace=wrap;html=1;rotation=90;" vertex="1" parent="1">
          <mxGeometry x="-390" y="10" width="20" height="30" as="geometry" />
        </mxCell>
        <mxCell id="CNiatcifHr_KIV68cKUx-235" style="edgeStyle=orthogonalEdgeStyle;rounded=0;orthogonalLoop=1;jettySize=auto;html=1;exitX=1;exitY=0.5;exitDx=0;exitDy=0;entryX=0;entryY=0.5;entryDx=0;entryDy=0;" edge="1" parent="1" source="CNiatcifHr_KIV68cKUx-156" target="CNiatcifHr_KIV68cKUx-182">
          <mxGeometry relative="1" as="geometry">
            <Array as="points">
              <mxPoint x="-440" y="220" />
              <mxPoint x="390" y="220" />
              <mxPoint x="390" y="210" />
            </Array>
          </mxGeometry>
        </mxCell>
        <mxCell id="CNiatcifHr_KIV68cKUx-156" value="" style="triangle;whiteSpace=wrap;html=1;rotation=90;" vertex="1" parent="1">
          <mxGeometry x="-450" y="10" width="20" height="30" as="geometry" />
        </mxCell>
        <mxCell id="CNiatcifHr_KIV68cKUx-161" value="f_value [31]" style="text;html=1;align=center;verticalAlign=middle;whiteSpace=wrap;rounded=0;" vertex="1" parent="1">
          <mxGeometry x="-690" y="80" width="70" height="20" as="geometry" />
        </mxCell>
        <mxCell id="CNiatcifHr_KIV68cKUx-162" value="f_value&amp;nbsp;[24]" style="text;html=1;align=center;verticalAlign=middle;whiteSpace=wrap;rounded=0;" vertex="1" parent="1">
          <mxGeometry x="-690" y="220" width="70" height="20" as="geometry" />
        </mxCell>
        <mxCell id="CNiatcifHr_KIV68cKUx-163" value="f_value&amp;nbsp;[25]" style="text;html=1;align=center;verticalAlign=middle;whiteSpace=wrap;rounded=0;" vertex="1" parent="1">
          <mxGeometry x="-690" y="200" width="70" height="20" as="geometry" />
        </mxCell>
        <mxCell id="CNiatcifHr_KIV68cKUx-164" value="f_value&amp;nbsp;[26]" style="text;html=1;align=center;verticalAlign=middle;whiteSpace=wrap;rounded=0;" vertex="1" parent="1">
          <mxGeometry x="-690" y="180" width="70" height="20" as="geometry" />
        </mxCell>
        <mxCell id="CNiatcifHr_KIV68cKUx-165" value="f_value&amp;nbsp;[28]" style="text;html=1;align=center;verticalAlign=middle;whiteSpace=wrap;rounded=0;" vertex="1" parent="1">
          <mxGeometry x="-690" y="140" width="70" height="20" as="geometry" />
        </mxCell>
        <mxCell id="CNiatcifHr_KIV68cKUx-166" value="f_value&amp;nbsp;[27]" style="text;html=1;align=center;verticalAlign=middle;whiteSpace=wrap;rounded=0;" vertex="1" parent="1">
          <mxGeometry x="-690" y="160" width="70" height="20" as="geometry" />
        </mxCell>
        <mxCell id="CNiatcifHr_KIV68cKUx-167" value="f_value&amp;nbsp;[29]" style="text;html=1;align=center;verticalAlign=middle;whiteSpace=wrap;rounded=0;" vertex="1" parent="1">
          <mxGeometry x="-690" y="120" width="70" height="20" as="geometry" />
        </mxCell>
        <mxCell id="CNiatcifHr_KIV68cKUx-168" value="f_value&amp;nbsp;[30]" style="text;html=1;align=center;verticalAlign=middle;whiteSpace=wrap;rounded=0;" vertex="1" parent="1">
          <mxGeometry x="-690" y="100" width="70" height="20" as="geometry" />
        </mxCell>
        <mxCell id="CNiatcifHr_KIV68cKUx-169" value="f_value&amp;nbsp;[14]" style="text;html=1;align=center;verticalAlign=middle;whiteSpace=wrap;rounded=0;" vertex="1" parent="1">
          <mxGeometry x="410" y="100" width="70" height="20" as="geometry" />
        </mxCell>
        <mxCell id="CNiatcifHr_KIV68cKUx-170" value="f_value&amp;nbsp;[12]" style="text;html=1;align=center;verticalAlign=middle;whiteSpace=wrap;rounded=0;" vertex="1" parent="1">
          <mxGeometry x="410" y="140" width="70" height="20" as="geometry" />
        </mxCell>
        <mxCell id="CNiatcifHr_KIV68cKUx-171" value="f_value&amp;nbsp;[15]" style="text;html=1;align=center;verticalAlign=middle;whiteSpace=wrap;rounded=0;" vertex="1" parent="1">
          <mxGeometry x="410" y="80" width="70" height="20" as="geometry" />
        </mxCell>
        <mxCell id="CNiatcifHr_KIV68cKUx-172" value="f_value&amp;nbsp;[13]" style="text;html=1;align=center;verticalAlign=middle;whiteSpace=wrap;rounded=0;" vertex="1" parent="1">
          <mxGeometry x="410" y="120" width="70" height="20" as="geometry" />
        </mxCell>
        <mxCell id="CNiatcifHr_KIV68cKUx-173" value="f_value&amp;nbsp;[16]" style="text;html=1;align=center;verticalAlign=middle;whiteSpace=wrap;rounded=0;" vertex="1" parent="1">
          <mxGeometry x="-690" y="380" width="70" height="20" as="geometry" />
        </mxCell>
        <mxCell id="CNiatcifHr_KIV68cKUx-174" value="f_value&amp;nbsp;[17]" style="text;html=1;align=center;verticalAlign=middle;whiteSpace=wrap;rounded=0;" vertex="1" parent="1">
          <mxGeometry x="-690" y="360" width="70" height="20" as="geometry" />
        </mxCell>
        <mxCell id="CNiatcifHr_KIV68cKUx-175" value="f_value&amp;nbsp;[18]" style="text;html=1;align=center;verticalAlign=middle;whiteSpace=wrap;rounded=0;" vertex="1" parent="1">
          <mxGeometry x="-690" y="340" width="70" height="20" as="geometry" />
        </mxCell>
        <mxCell id="CNiatcifHr_KIV68cKUx-176" value="f_value&amp;nbsp;[19]" style="text;html=1;align=center;verticalAlign=middle;whiteSpace=wrap;rounded=0;" vertex="1" parent="1">
          <mxGeometry x="-690" y="320" width="70" height="20" as="geometry" />
        </mxCell>
        <mxCell id="CNiatcifHr_KIV68cKUx-177" value="f_value&amp;nbsp;[20]" style="text;html=1;align=center;verticalAlign=middle;whiteSpace=wrap;rounded=0;" vertex="1" parent="1">
          <mxGeometry x="-690" y="300" width="70" height="20" as="geometry" />
        </mxCell>
        <mxCell id="CNiatcifHr_KIV68cKUx-178" value="f_value&amp;nbsp;[21]" style="text;html=1;align=center;verticalAlign=middle;whiteSpace=wrap;rounded=0;" vertex="1" parent="1">
          <mxGeometry x="-690" y="280" width="70" height="20" as="geometry" />
        </mxCell>
        <mxCell id="CNiatcifHr_KIV68cKUx-179" value="f_value&amp;nbsp;[22]" style="text;html=1;align=center;verticalAlign=middle;whiteSpace=wrap;rounded=0;" vertex="1" parent="1">
          <mxGeometry x="-690" y="260" width="70" height="20" as="geometry" />
        </mxCell>
        <mxCell id="CNiatcifHr_KIV68cKUx-180" value="f_value&amp;nbsp;[23]" style="text;html=1;align=center;verticalAlign=middle;whiteSpace=wrap;rounded=0;" vertex="1" parent="1">
          <mxGeometry x="-690" y="240" width="70" height="20" as="geometry" />
        </mxCell>
        <mxCell id="CNiatcifHr_KIV68cKUx-181" value="f_value&amp;nbsp;[8]" style="text;html=1;align=center;verticalAlign=middle;whiteSpace=wrap;rounded=0;" vertex="1" parent="1">
          <mxGeometry x="410" y="220" width="70" height="20" as="geometry" />
        </mxCell>
        <mxCell id="CNiatcifHr_KIV68cKUx-182" value="f_value&amp;nbsp;[9]" style="text;html=1;align=center;verticalAlign=middle;whiteSpace=wrap;rounded=0;" vertex="1" parent="1">
          <mxGeometry x="410" y="200" width="70" height="20" as="geometry" />
        </mxCell>
        <mxCell id="CNiatcifHr_KIV68cKUx-183" value="f_value&amp;nbsp;[10]" style="text;html=1;align=center;verticalAlign=middle;whiteSpace=wrap;rounded=0;" vertex="1" parent="1">
          <mxGeometry x="410" y="180" width="70" height="20" as="geometry" />
        </mxCell>
        <mxCell id="CNiatcifHr_KIV68cKUx-184" value="f_value&amp;nbsp;[11]" style="text;html=1;align=center;verticalAlign=middle;whiteSpace=wrap;rounded=0;" vertex="1" parent="1">
          <mxGeometry x="410" y="160" width="70" height="20" as="geometry" />
        </mxCell>
        <mxCell id="CNiatcifHr_KIV68cKUx-185" value="f_value&amp;nbsp;[7]" style="text;html=1;align=center;verticalAlign=middle;whiteSpace=wrap;rounded=0;" vertex="1" parent="1">
          <mxGeometry x="410" y="240" width="70" height="20" as="geometry" />
        </mxCell>
        <mxCell id="CNiatcifHr_KIV68cKUx-186" value="f_value&amp;nbsp;[0]" style="text;html=1;align=center;verticalAlign=middle;whiteSpace=wrap;rounded=0;" vertex="1" parent="1">
          <mxGeometry x="410" y="380" width="70" height="20" as="geometry" />
        </mxCell>
        <mxCell id="CNiatcifHr_KIV68cKUx-187" value="f_value&amp;nbsp;[1]" style="text;html=1;align=center;verticalAlign=middle;whiteSpace=wrap;rounded=0;" vertex="1" parent="1">
          <mxGeometry x="410" y="360" width="70" height="20" as="geometry" />
        </mxCell>
        <mxCell id="CNiatcifHr_KIV68cKUx-188" value="f_value&amp;nbsp;[2]" style="text;html=1;align=center;verticalAlign=middle;whiteSpace=wrap;rounded=0;" vertex="1" parent="1">
          <mxGeometry x="410" y="340" width="70" height="20" as="geometry" />
        </mxCell>
        <mxCell id="CNiatcifHr_KIV68cKUx-189" value="f_value&amp;nbsp;[4]" style="text;html=1;align=center;verticalAlign=middle;whiteSpace=wrap;rounded=0;" vertex="1" parent="1">
          <mxGeometry x="410" y="300" width="70" height="20" as="geometry" />
        </mxCell>
        <mxCell id="CNiatcifHr_KIV68cKUx-190" value="f_value&amp;nbsp;[3]" style="text;html=1;align=center;verticalAlign=middle;whiteSpace=wrap;rounded=0;" vertex="1" parent="1">
          <mxGeometry x="410" y="320" width="70" height="20" as="geometry" />
        </mxCell>
        <mxCell id="CNiatcifHr_KIV68cKUx-191" value="f_value&amp;nbsp;[5]" style="text;html=1;align=center;verticalAlign=middle;whiteSpace=wrap;rounded=0;" vertex="1" parent="1">
          <mxGeometry x="410" y="280" width="70" height="20" as="geometry" />
        </mxCell>
        <mxCell id="CNiatcifHr_KIV68cKUx-192" value="f_value&amp;nbsp;[6]" style="text;html=1;align=center;verticalAlign=middle;whiteSpace=wrap;rounded=0;" vertex="1" parent="1">
          <mxGeometry x="410" y="260" width="70" height="20" as="geometry" />
        </mxCell>
      </root>
    </mxGraphModel>
  </diagram>
</mxfile>
